<svg width="182" height="62" viewBox="0 0 182 62" fill="none" xmlns="http://www.w3.org/2000/svg">
<path fill-rule="evenodd" clip-rule="evenodd" d="M31 0H151H152V0.0158237C168.658 0.543728 182 14.2138 182 31C182 47.7862 168.658 61.4563 152 61.9842V62H151H31C13.8792 62 0 48.1208 0 31C0 13.8792 13.8792 0 31 0Z" fill="#FFA800"/>
<path d="M69.5527 40.192C68.2887 40.192 67.0647 40 65.8807 39.616C64.7127 39.216 63.7927 38.704 63.1207 38.08L64.0087 36.208C64.6487 36.784 65.4647 37.256 66.4567 37.624C67.4647 37.976 68.4967 38.152 69.5527 38.152C70.9447 38.152 71.9847 37.92 72.6727 37.456C73.3607 36.976 73.7047 36.344 73.7047 35.56C73.7047 34.984 73.5127 34.52 73.1287 34.168C72.7607 33.8 72.2967 33.52 71.7367 33.328C71.1927 33.136 70.4167 32.92 69.4087 32.68C68.1447 32.376 67.1207 32.072 66.3367 31.768C65.5687 31.464 64.9047 31 64.3447 30.376C63.8007 29.736 63.5287 28.88 63.5287 27.808C63.5287 26.912 63.7607 26.104 64.2247 25.384C64.7047 24.664 65.4247 24.088 66.3847 23.656C67.3447 23.224 68.5367 23.008 69.9607 23.008C70.9527 23.008 71.9287 23.136 72.8887 23.392C73.8487 23.648 74.6727 24.016 75.3607 24.496L74.5687 26.416C73.8647 25.968 73.1127 25.632 72.3127 25.408C71.5127 25.168 70.7287 25.048 69.9607 25.048C68.6007 25.048 67.5767 25.296 66.8887 25.792C66.2167 26.288 65.8807 26.928 65.8807 27.712C65.8807 28.288 66.0727 28.76 66.4567 29.128C66.8407 29.48 67.3127 29.76 67.8727 29.968C68.4487 30.16 69.2247 30.368 70.2007 30.592C71.4647 30.896 72.4807 31.2 73.2487 31.504C74.0167 31.808 74.6727 32.272 75.2167 32.896C75.7767 33.52 76.0567 34.36 76.0567 35.416C76.0567 36.296 75.8167 37.104 75.3367 37.84C74.8567 38.56 74.1287 39.136 73.1527 39.568C72.1767 39.984 70.9767 40.192 69.5527 40.192ZM91.083 27.28V40H88.899V38.08C88.435 38.736 87.819 39.248 87.051 39.616C86.299 39.968 85.475 40.144 84.579 40.144C82.883 40.144 81.547 39.68 80.571 38.752C79.595 37.808 79.107 36.424 79.107 34.6V27.28H81.411V34.336C81.411 35.568 81.707 36.504 82.299 37.144C82.891 37.768 83.739 38.08 84.843 38.08C86.059 38.08 87.019 37.712 87.723 36.976C88.427 36.24 88.779 35.2 88.779 33.856V27.28H91.083ZM81.195 23.152H89.019V24.592H81.195V23.152ZM102.621 39.256C102.285 39.544 101.869 39.768 101.373 39.928C100.877 40.072 100.365 40.144 99.8372 40.144C98.5572 40.144 97.5652 39.8 96.8612 39.112C96.1572 38.424 95.8052 37.44 95.8052 36.16V29.176H93.6452V27.28H95.8052V24.496H98.1092V27.28H101.757V29.176H98.1092V36.064C98.1092 36.752 98.2772 37.28 98.6132 37.648C98.9652 38.016 99.4612 38.2 100.101 38.2C100.805 38.2 101.405 38 101.901 37.6L102.621 39.256ZM105.407 27.28H107.711V40H105.407V27.28ZM103.367 23.152H109.751V24.592H103.367V23.152ZM119.262 39.256C118.926 39.544 118.51 39.768 118.014 39.928C117.518 40.072 117.006 40.144 116.478 40.144C115.198 40.144 114.206 39.8 113.502 39.112C112.798 38.424 112.446 37.44 112.446 36.16V29.176H110.286V27.28H112.446V24.496H114.75V27.28H118.398V29.176H114.75V36.064C114.75 36.752 114.918 37.28 115.254 37.648C115.606 38.016 116.102 38.2 116.742 38.2C117.446 38.2 118.046 38 118.542 37.6L119.262 39.256Z" fill="white"/>
</svg>
