<svg width="183" height="62" viewBox="0 0 183 62" fill="none" xmlns="http://www.w3.org/2000/svg">
<rect width="183" height="62" fill="#E5E5E5"/>
<g clip-path="url(#clip0)">
<rect width="1366" height="1802" transform="translate(-591 -1214)" fill="white"/>
<path fill-rule="evenodd" clip-rule="evenodd" d="M31.7593 0H151.759H152.759V0.0158217C169.417 0.543695 182.759 14.2137 182.759 31C182.759 47.7862 169.417 61.4563 152.759 61.9842V62H151.759H31.7593C31.759 62 31.7588 62 31.7585 62C14.638 61.9996 0.759277 48.1206 0.759277 31C0.759277 13.8794 14.638 0.0004051 31.7585 0C31.7588 0 31.759 0 31.7593 0Z" fill="#FFA800"/>
<path d="M70.312 40.192C69.048 40.192 67.824 40 66.64 39.616C65.472 39.216 64.552 38.704 63.88 38.08L64.768 36.208C65.408 36.784 66.224 37.256 67.216 37.624C68.224 37.976 69.256 38.152 70.312 38.152C71.704 38.152 72.744 37.92 73.432 37.456C74.12 36.976 74.464 36.344 74.464 35.56C74.464 34.984 74.272 34.52 73.888 34.168C73.52 33.8 73.056 33.52 72.496 33.328C71.952 33.136 71.176 32.92 70.168 32.68C68.904 32.376 67.88 32.072 67.096 31.768C66.328 31.464 65.664 31 65.104 30.376C64.56 29.736 64.288 28.88 64.288 27.808C64.288 26.912 64.52 26.104 64.984 25.384C65.464 24.664 66.184 24.088 67.144 23.656C68.104 23.224 69.296 23.008 70.72 23.008C71.712 23.008 72.688 23.136 73.648 23.392C74.608 23.648 75.432 24.016 76.12 24.496L75.328 26.416C74.624 25.968 73.872 25.632 73.072 25.408C72.272 25.168 71.488 25.048 70.72 25.048C69.36 25.048 68.336 25.296 67.648 25.792C66.976 26.288 66.64 26.928 66.64 27.712C66.64 28.288 66.832 28.76 67.216 29.128C67.6 29.48 68.072 29.76 68.632 29.968C69.208 30.16 69.984 30.368 70.96 30.592C72.224 30.896 73.24 31.2 74.008 31.504C74.776 31.808 75.432 32.272 75.976 32.896C76.536 33.52 76.816 34.36 76.816 35.416C76.816 36.296 76.576 37.104 76.096 37.84C75.616 38.56 74.888 39.136 73.912 39.568C72.936 39.984 71.736 40.192 70.312 40.192ZM91.8422 27.28V40H89.6582V38.08C89.1942 38.736 88.5782 39.248 87.8102 39.616C87.0582 39.968 86.2342 40.144 85.3382 40.144C83.6422 40.144 82.3062 39.68 81.3302 38.752C80.3542 37.808 79.8662 36.424 79.8662 34.6V27.28H82.1702V34.336C82.1702 35.568 82.4662 36.504 83.0582 37.144C83.6502 37.768 84.4982 38.08 85.6022 38.08C86.8182 38.08 87.7782 37.712 88.4822 36.976C89.1862 36.24 89.5382 35.2 89.5382 33.856V27.28H91.8422ZM81.9542 23.152H89.7782V24.592H81.9542V23.152ZM103.38 39.256C103.044 39.544 102.628 39.768 102.132 39.928C101.636 40.072 101.124 40.144 100.596 40.144C99.3164 40.144 98.3244 39.8 97.6204 39.112C96.9164 38.424 96.5644 37.44 96.5644 36.16V29.176H94.4044V27.28H96.5644V24.496H98.8684V27.28H102.516V29.176H98.8684V36.064C98.8684 36.752 99.0364 37.28 99.3724 37.648C99.7244 38.016 100.22 38.2 100.86 38.2C101.564 38.2 102.164 38 102.66 37.6L103.38 39.256ZM106.166 27.28H108.47V40H106.166V27.28ZM104.126 23.152H110.51V24.592H104.126V23.152ZM120.021 39.256C119.685 39.544 119.269 39.768 118.773 39.928C118.277 40.072 117.765 40.144 117.237 40.144C115.957 40.144 114.965 39.8 114.261 39.112C113.557 38.424 113.205 37.44 113.205 36.16V29.176H111.045V27.28H113.205V24.496H115.509V27.28H119.157V29.176H115.509V36.064C115.509 36.752 115.677 37.28 116.013 37.648C116.365 38.016 116.861 38.2 117.501 38.2C118.205 38.2 118.805 38 119.301 37.6L120.021 39.256Z" fill="white"/>
</g>
<defs>
<clipPath id="clip0">
<rect width="1366" height="1802" fill="white" transform="translate(-591 -1214)"/>
</clipPath>
</defs>
</svg>
